<svg width="192" height="35" viewBox="0 0 192 35" fill="none" xmlns="http://www.w3.org/2000/svg">
<path fill-rule="evenodd" clip-rule="evenodd" d="M178.857 16.8301C181.447 16.2433 184.033 17.3062 185.473 19.3156L174.021 21.9059C174.417 19.482 176.266 17.4159 178.857 16.8301ZM185.537 26.3623C184.631 27.6732 183.264 28.5935 181.709 28.9392C179.101 29.5298 176.498 28.4487 175.065 26.4133L186.551 23.8143L188.422 23.3911L192 22.5821C191.978 21.8135 191.878 21.049 191.702 20.3005C190.246 14.1195 183.953 10.2662 177.647 11.6927C171.341 13.1201 167.409 19.2877 168.865 25.4678C170.32 31.6488 176.613 35.5031 182.919 34.0766C186.635 33.235 189.525 30.7485 190.976 27.583L185.537 26.3623ZM158.506 33.764V17.3774H154.969V11.7946H158.506V4.11013H164.512V11.7946H169.023V17.3774H164.512V33.764H158.506ZM147.033 33.764H152.833V11.7946H147.033V33.764ZM146.279 4.08704C146.279 2.05362 147.882 0.528074 149.957 0.528074C152.032 0.528074 153.588 2.05362 153.588 4.08704C153.588 6.12142 152.032 7.69218 149.957 7.69218C147.882 7.69218 146.279 6.12142 146.279 4.08704ZM145.014 11.8562C142.048 12.0101 140.3 12.465 138.521 13.754V11.7946H132.724V33.764H138.52V22.9909C138.52 19.6013 139.347 17.6727 145.014 17.4832V11.8562ZM112.694 23.1246C112.838 26.3306 115.628 29.0191 119.044 29.0191C122.509 29.0191 125.347 26.1892 125.347 22.8418C125.347 19.5407 122.509 16.7118 119.044 16.7118C115.629 16.7118 112.838 19.4464 112.694 22.6062V23.1246ZM107.038 33.764V1.31201L112.838 0V13.4298C114.63 11.9966 116.753 11.3954 119.063 11.3954C125.666 11.3954 130.947 16.4799 130.947 22.8592C130.947 29.1912 125.667 34.3681 119.063 34.3681C116.753 34.3681 114.63 33.7679 112.838 32.3347V33.765H107.038V33.764ZM94.6921 33.764V17.2648H91.1552V11.7946H94.6921V4.10436L100.698 2.74521V11.7946H105.209V17.2648H100.698V33.764H94.6921ZM84.0633 33.764V22.0262C84.0633 17.7737 81.7518 16.8493 79.4404 16.8493C77.13 16.8493 74.8196 17.7275 74.8196 21.9338V33.764H69.0194V11.7946H74.8196V13.4289C76.0921 12.5045 77.6485 11.3945 80.7149 11.3945C85.6186 11.3945 89.8634 14.2147 89.8634 21.1018V33.764H84.0633ZM54.3305 16.8301C56.9218 16.2433 59.5073 17.3062 60.9463 19.3156L49.4961 21.9059C49.8904 19.482 51.7401 17.4159 54.3305 16.8301ZM61.0108 26.3623C60.1051 27.6732 58.7378 28.5935 57.1825 28.9392C54.5758 29.5298 51.9729 28.4487 50.5387 26.4133L62.0256 23.8143L63.8964 23.3911L67.4737 22.5821C67.4519 21.8135 67.352 21.049 67.1755 20.3005C65.7192 14.1195 59.4265 10.2662 53.1204 11.6927C46.8143 13.1201 42.8822 19.2877 44.3384 25.4678C45.7947 31.6488 52.0864 35.5031 58.3935 34.0766C62.1092 33.235 64.9997 30.7485 66.4493 27.583L61.0108 26.3623ZM30.6749 33.764L21.6669 11.7946H27.9864L33.6933 26.6942L39.4463 11.7946H45.7659L36.7588 33.764H30.6749ZM10.2945 16.8243C12.8858 16.2375 15.4714 17.3004 16.9113 19.3098L5.4601 21.9011C5.85447 19.4772 7.70417 17.411 10.2945 16.8243ZM16.9748 26.3566C16.0693 27.6678 14.702 28.5885 13.1465 28.9344C10.5398 29.524 7.93694 28.4438 6.50278 26.4085L17.9896 23.8095L19.8604 23.3863L23.4377 22.5764C23.4159 21.808 23.316 21.0439 23.1395 20.2957C21.6832 14.1147 15.3915 10.2604 9.08447 11.6869C2.77837 13.1143 -1.15189 19.2829 0.302479 25.4639C1.75877 31.645 8.05141 35.4983 14.3575 34.0718C18.0733 33.2311 20.9637 30.7437 22.4142 27.5791L16.9748 26.3575V26.3566Z" fill="black"/>
</svg>
