<?xml version="1.0" encoding="UTF-8" standalone="no"?>
<svg
   xmlns:dc="http://purl.org/dc/elements/1.1/"
   xmlns:cc="http://creativecommons.org/ns#"
   xmlns:rdf="http://www.w3.org/1999/02/22-rdf-syntax-ns#"
   xmlns:svg="http://www.w3.org/2000/svg"
   xmlns="http://www.w3.org/2000/svg"
   xmlns:sodipodi="http://sodipodi.sourceforge.net/DTD/sodipodi-0.dtd"
   xmlns:inkscape="http://www.inkscape.org/namespaces/inkscape"
   version="1.1"
   width="854.00525"
   height="157.84854"
   viewBox="0 0 854.00525 157.84854"
   xml:space="preserve"
   id="svg77"
   sodipodi:docname="linktree.svg"
   inkscape:version="1.0.1 (3bc2e813f5, 2020-09-07)"><metadata
   id="metadata81"><rdf:RDF><cc:Work
       rdf:about=""><dc:format>image/svg+xml</dc:format><dc:type
         rdf:resource="http://purl.org/dc/dcmitype/StillImage" /><dc:title></dc:title></cc:Work></rdf:RDF></metadata><sodipodi:namedview
   pagecolor="#ffffff"
   bordercolor="#666666"
   borderopacity="1"
   objecttolerance="10"
   gridtolerance="10"
   guidetolerance="10"
   inkscape:pageopacity="0"
   inkscape:pageshadow="2"
   inkscape:window-width="3840"
   inkscape:window-height="2126"
   id="namedview79"
   showgrid="false"
   fit-margin-top="0"
   fit-margin-left="0"
   fit-margin-right="0"
   fit-margin-bottom="0"
   inkscape:zoom="0.65996633"
   inkscape:cx="708.3071"
   inkscape:cy="553.08027"
   inkscape:window-x="2869"
   inkscape:window-y="-11"
   inkscape:window-maximized="1"
   inkscape:current-layer="svg77"
   inkscape:pagecheckerboard="true" />
<desc
   id="desc53">Created with Fabric.js 4.2.0</desc>
<defs
   id="defs55">
</defs>

<g
   transform="translate(423.89174,134.56552)"
   id="f13e530d-d1de-4f8e-9061-f4780a8082d3">
</g>
<g
   transform="matrix(10.19,0,0,10.19,-6.0782618,-0.09448418)"
   id="g63">
<rect
   style="visibility:hidden;opacity:1;fill:#000000;fill-rule:nonzero;stroke:none;stroke-width:1;stroke-linecap:butt;stroke-linejoin:miter;stroke-miterlimit:4;stroke-dasharray:none;stroke-dashoffset:0"
   vector-effect="non-scaling-stroke"
   x="0"
   y="0"
   rx="0"
   ry="0"
   width="0"
   height="0"
   id="rect61" />
</g>
<g
   transform="matrix(10.19,0,0,10.19,543.29174,87.965516)"
   id="g67">
<path
   style="opacity:1;fill:#000000;fill-rule:nonzero;stroke:none;stroke-width:1;stroke-linecap:butt;stroke-linejoin:miter;stroke-miterlimit:4;stroke-dasharray:none;stroke-dashoffset:0"
   vector-effect="non-scaling-stroke"
   transform="translate(-53.94,-8.65)"
   d="m 23.446,15.015 v -12.8 c 0,-0.184 0.123,-0.369 0.37,-0.369 h 1.169 c 0.184,0 0.369,0.123 0.369,0.37 v 12.86 c 0,0.186 -0.123,0.37 -0.37,0.37 h -1.169 c -0.184,-0.061 -0.369,-0.184 -0.369,-0.43 z m 4.43,-11.63 V 2.154 c 0,-0.185 0.124,-0.37 0.37,-0.37 h 1.292 c 0.185,0 0.37,0.124 0.37,0.37 v 1.23 c 0,0.185 -0.123,0.37 -0.37,0.37 h -1.292 c -0.246,0 -0.37,-0.123 -0.37,-0.37 z m 0.062,11.63 V 5.908 c 0,-0.185 0.185,-0.37 0.37,-0.37 h 1.107 c 0.185,0 0.37,0.124 0.37,0.37 v 9.169 c 0,0.185 -0.123,0.37 -0.37,0.37 h -1.107 c -0.185,-0.062 -0.37,-0.185 -0.37,-0.432 z m 4.37,0 V 5.908 c 0,-0.185 0.123,-0.37 0.369,-0.37 h 1.108 c 0.184,0 0.369,0.124 0.369,0.37 v 0.615 h 0.061 C 34.585,6.031 35.2,5.6 36.123,5.353 h 0.062 c 1.415,-0.184 2.523,0.124 3.261,0.924 0.616,0.677 0.985,1.538 0.985,2.707 v 6.092 c 0,0.184 -0.123,0.37 -0.37,0.37 h -1.107 c -0.185,0 -0.37,-0.123 -0.37,-0.37 v -5.6 c 0,-1.662 -0.677,-2.525 -2.092,-2.525 -0.677,0 -1.292,0.185 -1.723,0.616 -0.43,0.43 -0.615,0.985 -0.615,1.661 v 5.846 c 0,0.185 -0.123,0.37 -0.37,0.37 h -1.108 c -0.245,-0.06 -0.368,-0.182 -0.368,-0.429 z m 10.277,0 v -12.8 c 0,-0.184 0.123,-0.369 0.369,-0.369 h 1.108 c 0.184,0 0.369,0.123 0.369,0.37 v 7.753 h 0.061 l 3.877,-4.246 c 0,-0.123 0.123,-0.185 0.185,-0.185 h 1.415 c 0.308,0 0.431,0.37 0.246,0.554 l -2.83,3.2 c -0.05913,0.056082 -0.09263,0.1340006 -0.09263,0.2155 0,0.081499 0.03349,0.159418 0.09263,0.2155 l 3.446,5.17 c 0.123,0.245 0,0.553 -0.308,0.553 h -1.23 c -0.11402,-0.0031 -0.223209,-0.04671 -0.308,-0.123 l -3.139,-4.677 h -0.061 l -1.293,1.416 c -0.061,0.062 -0.061,0.123 -0.061,0.246 v 2.83 c 0,0.185 -0.123,0.37 -0.37,0.37 h -1.107 c -0.185,-0.123 -0.37,-0.246 -0.37,-0.493 z M 53.108,12.308 V 7.138 H 52 c -0.185,0 -0.37,-0.123 -0.37,-0.369 V 5.908 C 51.692,5.723 51.815,5.538 52,5.538 h 1.17 v -2.03 c 0,-0.185 0.122,-0.37 0.37,-0.37 h 1.045 c 0.185,0 0.37,0.124 0.37,0.37 v 2.03 h 2.092 c 0.184,0 0.369,0.124 0.369,0.37 v 0.861 c 0,0.185 -0.122,0.37 -0.37,0.37 h -2.092 v 4.984 c 0,0.553 0.062,0.923 0.247,1.169 0.184,0.246 0.491,0.37 0.984,0.37 h 0.43 c 0.185,0 0.37,0.123 0.37,0.369 v 1.046 c 0,0.185 -0.123,0.37 -0.37,0.37 h -0.553 c -1.046,0 -1.784,-0.246 -2.277,-0.739 -0.431,-0.616 -0.677,-1.354 -0.677,-2.4 z m 6.277,2.707 V 5.908 c 0,-0.185 0.123,-0.37 0.307,-0.37 h 1.046 c 0.185,0 0.37,0.124 0.37,0.37 v 0.738 h 0.061 c 0.185,-0.37 0.493,-0.677 0.861,-0.923 0.37,-0.246 0.739,-0.308 1.17,-0.308 0.184,0 0.429,0 0.615,0.062 0.185,0.061 0.247,0.246 0.247,0.37 l -0.185,1.107 c -0.062,0.184 -0.246,0.308 -0.43,0.246 -0.123,0 -0.246,-0.062 -0.431,-0.062 -1.169,0 -1.784,0.8 -1.784,2.4 v 5.416 c 0,0.184 -0.123,0.37 -0.37,0.37 h -1.17 c -0.184,0.06 -0.307,-0.062 -0.307,-0.309 z m 12.984,-2.83 0.8,0.615 c 0.123,0.123 0.186,0.308 0.063,0.43 -0.37,0.555 -0.86,1.047 -1.415,1.478 -0.679,0.43 -1.539,0.677 -2.462,0.677 -1.354,0 -2.461,-0.493 -3.323,-1.416 -0.862,-0.923 -1.292,-2.216 -1.292,-3.754 0,-1.6 0.43,-2.832 1.292,-3.755 0.862,-0.923 1.908,-1.415 3.262,-1.415 1.293,0 2.4,0.492 3.2,1.415 0.8,0.923 1.23,2.216 1.23,3.816 v 0.186 c 0,0.184 -0.122,0.369 -0.369,0.369 h -6.4 c -0.185,0 -0.37,0.185 -0.37,0.37 0.062,0.677 0.309,1.293 0.678,1.784 0.493,0.553 1.108,0.861 1.969,0.861 0.43,0 0.8,-0.061 1.108,-0.184 0.307,-0.124 0.615,-0.308 0.8,-0.493 0.246,-0.246 0.37,-0.43 0.492,-0.554 0.063,-0.061 0.124,-0.184 0.186,-0.246 0.12,-0.246 0.367,-0.307 0.551,-0.184 z M 66.585,9.292 h 5.292 C 71.815,8.554 71.631,7.877 71.2,7.385 c -0.43,-0.554 -1.109,-0.8 -1.97,-0.8 -0.8,0 -1.476,0.307 -1.908,0.861 C 66.831,8 66.585,8.616 66.585,9.292 Z m 16.492,2.893 0.8,0.615 c 0.123,0.123 0.185,0.308 0.062,0.43 -0.37,0.555 -0.86,1.047 -1.416,1.478 -0.677,0.43 -1.538,0.677 -2.461,0.677 -1.354,0 -2.462,-0.493 -3.322,-1.416 -0.862,-0.923 -1.294,-2.216 -1.294,-3.754 0,-1.6 0.43,-2.832 1.294,-3.755 0.86,-0.923 1.907,-1.415 3.261,-1.415 1.293,0 2.4,0.492 3.2,1.415 0.8,0.923 1.231,2.216 1.231,3.816 v 0.186 c 0,0.184 -0.123,0.369 -0.37,0.369 h -6.4 c -0.198663,0.01311 -0.356892,0.171337 -0.37,0.37 0.062,0.677 0.307,1.293 0.677,1.784 0.493,0.553 1.108,0.861 1.968,0.861 0.432,0 0.801,-0.061 1.11,-0.184 0.307,-0.124 0.615,-0.308 0.8,-0.493 0.244,-0.246 0.368,-0.43 0.491,-0.554 0.063,-0.061 0.124,-0.184 0.185,-0.246 0.123,-0.246 0.37,-0.307 0.554,-0.184 z M 77.292,9.292 h 5.294 C 82.523,8.554 82.34,7.877 81.908,7.385 c -0.43,-0.554 -1.108,-0.8 -1.969,-0.8 -0.8,0 -1.476,0.307 -1.908,0.861 C 77.538,8 77.292,8.616 77.292,9.292 Z"
   stroke-linecap="round"
   id="path65" />
</g>
<g
   transform="matrix(10.19,0,0,10.19,45.861739,78.325516)"
   id="g71">
<path
   style="opacity:1;fill:#39e09b;fill-rule:nonzero;stroke:none;stroke-width:1;stroke-linecap:butt;stroke-linejoin:miter;stroke-miterlimit:4;stroke-dasharray:none;stroke-dashoffset:0"
   vector-effect="non-scaling-stroke"
   transform="translate(-5.1,-7.7)"
   d="M 7.385,0.43 C 7.2421208,0.1729211 6.9711157,0.01349206 6.677,0.01349206 6.3828843,0.01349206 6.1118792,0.1729211 5.969,0.43 l -5.292,9.6 c -0.246,0.493 0.123,1.047 0.677,1.047 h 3.57 v 3.63 c 0,0.37 0.307,0.678 0.676,0.678 h 2.092 c 0.37,0 0.677,-0.308 0.677,-0.677 V 11.077 H 7.385 c -0.397936,0.0047 -0.7388411,-0.283763 -0.8,-0.677 0,-0.123 0,-0.246 0.061,-0.37 L 9.6,4.676 Z"
   stroke-linecap="round"
   id="path69" />
</g>
<g
   transform="matrix(10.19,0,0,10.19,139.73174,78.325516)"
   id="g75">
<path
   style="opacity:1;fill:#28bf7b;fill-rule:nonzero;stroke:none;stroke-width:1;stroke-linecap:butt;stroke-linejoin:miter;stroke-miterlimit:4;stroke-dasharray:none;stroke-dashoffset:0"
   vector-effect="non-scaling-stroke"
   transform="translate(-14.32,-7.7)"
   d="m 12.062,0.43 c 0.143026,-0.25657585 0.413752,-0.41560965 0.7075,-0.41560965 0.293748,0 0.564474,0.1590338 0.7075,0.41560965 l 5.292,9.6 c 0.246,0.493 -0.123,1.047 -0.677,1.047 h -3.507 v 3.63 c 0,0.37 -0.308,0.678 -0.678,0.678 H 11.692 C 11.319461,15.3817 11.018259,15.080539 11.015,14.708 V 11.077 H 12 c 0.397936,0.0047 0.738841,-0.283763 0.8,-0.677 0,-0.123 0,-0.246 -0.062,-0.37 L 9.785,4.677 Z"
   stroke-linecap="round"
   id="path73" />
</g>
</svg>
