<svg width="189" height="27" viewBox="0 0 189 27" fill="none" xmlns="http://www.w3.org/2000/svg">
<g clip-path="url(#clip0)">
<path d="M13.7396 10.0036C13.7396 7.6938 12.169 5.70396 9.74235 5.70396H5.78119V14.3019H9.74235C12.169 14.3019 13.7396 12.3133 13.7396 10.0036ZM0 1.01411H10.4557C15.9876 1.01411 19.5568 5.17165 19.5568 10.0036C19.5568 14.8354 15.9876 18.9916 10.4557 18.9916H5.78124V25.8851H0V1.01411ZM36.2936 8.11994L33.2244 18.3532H39.2908L36.2936 8.11994ZM41.6827 25.8852L40.7201 22.8652H31.8337L30.8697 25.8851H24.6953L33.6177 1.01411H38.9348L47.964 25.8851H41.6827V25.8852ZM57.6703 5.98809H52.0331V1.01416H69.126V5.98809H63.4514V25.8851H57.6703V5.98809ZM91.8589 10.0036C91.8589 7.6938 90.2882 5.70396 87.8614 5.70396H83.9V14.3019H87.8614C90.2882 14.3019 91.8589 12.3133 91.8589 10.0036ZM78.1193 1.01411H88.6121C94.1427 1.01411 97.7118 5.17165 97.7118 10.0036C97.7118 13.4854 95.8557 16.5758 92.7505 18.0333L97.748 25.8851H91.0389L86.6122 18.9917H83.9V25.8851H78.1193V1.01411ZM113.308 5.63353V11.2819H122.764V15.7952H113.308V21.2656H122.764V25.8851H107.526V1.01411H122.764V5.63353H113.308ZM152.706 13.4496C152.706 9.36372 149.922 5.56195 145.39 5.56195C140.822 5.56195 138.074 9.36372 138.074 13.4496C138.074 17.5355 140.822 21.3374 145.39 21.3374C149.922 21.3374 152.706 17.5355 152.706 13.4496ZM132.149 13.4496C132.149 6.62787 137.075 0.374268 145.39 0.374268C153.669 0.374268 158.594 6.62787 158.594 13.4496C158.594 20.2714 153.669 26.5249 145.39 26.5249C137.075 26.5249 132.149 20.2713 132.149 13.4496ZM183.255 17.2156V1.01416H189V25.8851H182.969L173.975 9.89602V25.8851H168.194V1.01411H174.224L183.255 17.2156Z" fill="#141518"/>
</g>
<defs>
<clipPath id="clip0">
<rect width="189" height="26.1509" fill="white" transform="translate(0 0.373291)"/>
</clipPath>
</defs>
</svg>
