<svg width="310" height="43" viewBox="0 0 310 43" fill="none" xmlns="http://www.w3.org/2000/svg">
<path d="M61.7994 1.04822C57.7615 1.04822 53.8142 2.23896 50.4568 4.46986C47.0994 6.70076 44.4826 9.87162 42.9374 13.5815C41.3921 17.2913 40.9878 21.3735 41.7756 25.3119C42.5634 29.2503 44.5078 32.8679 47.363 35.7073C50.2183 38.5467 53.8561 40.4803 57.8164 41.2637C61.7767 42.0471 65.8817 41.645 69.6123 40.1084C73.3428 38.5717 76.5314 35.9694 78.7747 32.6306C81.0181 29.2919 82.2155 25.3665 82.2155 21.351C82.2149 15.9666 80.0638 10.8028 76.2351 6.99539C72.4065 3.18799 67.2139 1.04877 61.7994 1.04822ZM61.7994 31.4121C56.4779 31.4121 52.1615 26.9076 52.1615 21.351C52.1615 15.7944 56.4779 11.2899 61.7994 11.2899C67.1209 11.2899 71.4352 15.7944 71.4352 21.351C71.4352 26.9076 67.1188 31.4121 61.7994 31.4121Z" fill="black"/>
<path d="M0.0487671 1.84833L20.714 41.4648L41.3835 1.84833H29.3341L20.8365 18.3795L12.339 1.84833H0.0487671Z" fill="black"/>
<path d="M265.046 1.8504H254.09V40.9146H265.046V1.8504Z" fill="black"/>
<path d="M207.208 11.6322V1.84833H177.091V40.9125H207.208V31.1307H188.547V26.0865H205.831V16.6764H188.547V11.6322H207.208Z" fill="black"/>
<path d="M229.225 1.84833H212.722V40.9083H229.225C240.079 40.9083 248.908 32.1429 248.908 21.3783C248.908 10.6137 240.079 1.84833 229.225 1.84833ZM228.355 31.0089H223.804V11.7582H228.355C229.638 11.7394 230.912 11.9745 232.104 12.4498C233.295 12.9252 234.379 13.6314 235.293 14.5272C236.208 15.4231 236.934 16.4908 237.429 17.6682C237.925 18.8456 238.18 20.1093 238.18 21.3857C238.18 22.6621 237.925 23.9257 237.429 25.1032C236.934 26.2806 236.208 27.3483 235.293 28.2441C234.379 29.14 233.295 29.8462 232.104 30.3215C230.912 30.7969 229.638 31.032 228.355 31.0131" fill="black"/>
<path d="M159.635 19.1334V40.9125H170.711V1.8504H156.989L148.492 18.138L139.996 1.8504H126.272V40.9125H137.105V19.1334L148.369 40.7277L159.635 19.1334Z" fill="black"/>
<path d="M101.238 30.6267L108.147 40.9146H121.122L107.723 21.3825L120.999 1.8504H108.268L101.358 12.1362H101.479L94.569 1.8504H81.7171L94.9934 21.3825L81.5946 40.9146H94.3261L101.238 30.6267Z" fill="black"/>
<path d="M284.205 27.3423L289.094 13.3857L293.993 27.3423H284.205ZM295.661 1.84833H282.78L268.631 40.9083H279.612L281.327 35.8809H296.895L298.609 40.9083H309.825L295.661 1.84833Z" fill="black"/>
</svg>
